<?xml version="1.0" encoding="UTF-8" standalone="no"?>
<!DOCTYPE svg PUBLIC "-//W3C//DTD SVG 1.1//EN"
 "http://www.w3.org/Graphics/SVG/1.1/DTD/svg11.dtd">
<!-- Generated by graphviz version 15.1.0 (20260618.0150)
 -->
<!-- Title: G Pages: 1 -->
<svg width="288pt" height="153pt"
 viewBox="0.00 0.00 288.00 153.00" xmlns="http://www.w3.org/2000/svg" xmlns:xlink="http://www.w3.org/1999/xlink">
<g id="graph0" class="graph" transform="scale(1 1) rotate(0) translate(4 149)">
<title>G</title><style>.edge>path:hover{stroke-width:8}</style>
<polygon fill="white" stroke="none" points="-4,4 -4,-149 283.81,-149 283.81,4 -4,4"/>
<!-- flask -->
<g id="node1" class="node">
<title>flask</title><style>.edge>path:hover{stroke-width:8}</style>
<ellipse fill="#c04040" stroke="black" cx="29.01" cy="-127" rx="27" ry="18"/>
<text xml:space="preserve" text-anchor="middle" x="29.01" y="-123.5" font-family="Helvetica,sans-Serif" font-size="10.00" fill="#ffffff">flask</text>
</g>
<!-- src_app -->
<g id="node4" class="node">
<title>src_app</title><style>.edge>path:hover{stroke-width:8}</style>
<ellipse fill="#4646a4" stroke="black" cx="29.01" cy="-18" rx="29.01" ry="18"/>
<text xml:space="preserve" text-anchor="middle" x="29.01" y="-14.5" font-family="Helvetica,sans-Serif" font-size="10.00" fill="#ffffff">src.app</text>
</g>
<!-- flask&#45;&gt;src_app -->
<g id="edge1" class="edge">
<title>flask&#45;&gt;src_app</title><style>.edge>path:hover{stroke-width:8}</style>
<path fill="none" stroke="black" d="M29.01,-108.81C29.01,-92.27 29.01,-66.98 29.01,-47.44"/>
<polygon fill="#c04040" stroke="black" points="32.51,-47.66 29.01,-37.66 25.51,-47.66 32.51,-47.66"/>
</g>
<!-- psycopg -->
<g id="node2" class="node">
<title>psycopg</title><style>.edge>path:hover{stroke-width:8}</style>
<ellipse fill="#26d926" stroke="black" cx="225.01" cy="-127" rx="31.72" ry="18"/>
<text xml:space="preserve" text-anchor="middle" x="225.01" y="-123.5" font-family="Helvetica,sans-Serif" font-size="10.00" fill="#000000">psycopg</text>
</g>
<!-- psycopg&#45;&gt;src_app -->
<g id="edge2" class="edge">
<title>psycopg&#45;&gt;src_app</title><style>.edge>path:hover{stroke-width:8}</style>
<path fill="none" stroke="black" d="M225.01,-72C188.82,-9.73 135.33,-58.82 67.01,-36 65.22,-35.4 63.4,-34.75 61.58,-34.06"/>
<polygon fill="#26d926" stroke="black" points="63.21,-30.95 52.63,-30.39 60.55,-37.42 63.21,-30.95"/>
<path fill="none" stroke="black" d="M229.16,-109.11C230.91,-98.1 231.3,-83.82 225.01,-73"/>
</g>
<!-- src_load_data -->
<g id="node5" class="node">
<title>src_load_data</title><style>.edge>path:hover{stroke-width:8}</style>
<ellipse fill="#4c4cb3" stroke="black" cx="235.01" cy="-18" rx="44.8" ry="18"/>
<text xml:space="preserve" text-anchor="middle" x="235.01" y="-14.5" font-family="Helvetica,sans-Serif" font-size="10.00" fill="#ffffff">src.load_data</text>
</g>
<!-- psycopg&#45;&gt;src_load_data -->
<g id="edge3" class="edge">
<title>psycopg&#45;&gt;src_load_data</title><style>.edge>path:hover{stroke-width:8}</style>
<path fill="none" stroke="black" d="M225.01,-72C220.57,-64.34 220.77,-55.11 222.79,-46.51"/>
<polygon fill="#26d926" stroke="black" points="226.06,-47.79 225.8,-37.2 219.4,-45.64 226.06,-47.79"/>
</g>
<!-- src_query_data -->
<g id="node6" class="node">
<title>src_query_data</title><style>.edge>path:hover{stroke-width:8}</style>
<ellipse fill="#4949ac" stroke="black" cx="124.01" cy="-18" rx="48.41" ry="18"/>
<text xml:space="preserve" text-anchor="middle" x="124.01" y="-14.5" font-family="Helvetica,sans-Serif" font-size="10.00" fill="#ffffff">src.query_data</text>
</g>
<!-- psycopg&#45;&gt;src_query_data -->
<g id="edge4" class="edge">
<title>psycopg&#45;&gt;src_query_data</title><style>.edge>path:hover{stroke-width:8}</style>
<path fill="none" stroke="black" d="M225.01,-72C218.43,-60.67 191.64,-46.88 167.3,-36.21"/>
<polygon fill="#26d926" stroke="black" points="168.7,-33 158.13,-32.29 165.95,-39.43 168.7,-33"/>
</g>
<!-- psycopg_sql -->
<g id="node3" class="node">
<title>psycopg_sql</title><style>.edge>path:hover{stroke-width:8}</style>
<ellipse fill="#47c247" stroke="black" cx="124.01" cy="-127" rx="41.19" ry="18"/>
<text xml:space="preserve" text-anchor="middle" x="124.01" y="-123.5" font-family="Helvetica,sans-Serif" font-size="10.00" fill="#000000">psycopg.sql</text>
</g>
<!-- psycopg_sql&#45;&gt;src_app -->
<g id="edge5" class="edge">
<title>psycopg_sql&#45;&gt;src_app</title><style>.edge>path:hover{stroke-width:8}</style>
<path fill="none" stroke="black" d="M124.01,-72C121.48,-65.25 88.16,-47.69 61.69,-34.62"/>
<polygon fill="#47c247" stroke="black" points="63.48,-31.6 52.95,-30.35 60.4,-37.89 63.48,-31.6"/>
<path fill="none" stroke="black" d="M127.01,-108.75C128.14,-98.11 128.28,-84.37 124.01,-73"/>
</g>
<!-- psycopg_sql&#45;&gt;src_query_data -->
<g id="edge6" class="edge">
<title>psycopg_sql&#45;&gt;src_query_data</title><style>.edge>path:hover{stroke-width:8}</style>
<path fill="none" stroke="black" d="M124.01,-72C121.15,-64.36 120.27,-55.65 120.35,-47.53"/>
<polygon fill="#47c247" stroke="black" points="123.83,-47.95 120.93,-37.76 116.84,-47.54 123.83,-47.95"/>
</g>
</g>
</svg>
